<?xml version="1.0" encoding="UTF-8"?>
<svg id="Layer_2" xmlns="http://www.w3.org/2000/svg" viewBox="0 0 181.81 244.37">
  <g id="Layer_1-2" data-name="Layer_1">
    <g>
      <path d="M91.87,243.32c-5.46,0-9.87-3.54-9.87-9.17,0-4.52,2.56-7.46,6.58-8.12v3.26c-2.45.46-3.96,2.14-3.96,4.87,0,3.85,3.18,5.85,7.25,5.85s7.25-2,7.25-5.85c0-2.94-1.72-4.69-4.52-4.93v-3.22c4.48.42,7.18,3.39,7.18,8.16,0,5.63-4.41,9.17-9.91,9.17"/>
      <path d="M91.87,223.9c-5.46,0-9.87-3.61-9.87-9,0-2.8,1.08-4.97,2.9-6.44,1.86-1.54,4.55-2.31,7.74-2.31v14.42c3.68-.24,6.48-2.24,6.48-5.88,0-2.59-1.23-4.38-3.22-4.97v-3.18c3.5.84,5.88,3.85,5.88,8.19,0,5.77-4.41,9.17-9.91,9.17M90.29,220.5v-10.89c-3.6.18-5.77,2.03-5.77,5.28s2.45,5.18,5.77,5.6"/>
      <path d="M85.11,199.64v-.11c-1.89-1.36-3.12-3.22-3.12-5.95,0-3.92,2.21-6.34,6.12-6.34h13.13v3.22h-12.74c-2.42,0-3.78,1.57-3.78,4.13,0,2.91,2.06,5.01,5.07,5h11.45v3.26h-18.8v-3.22h2.66Z"/>
      <path d="M82.45,184.56v-2.94h-5.92v-3.22h5.92v-3.88h2.52v3.88h11.87c1.37,0,1.75-.73,1.75-1.92,0-.56-.14-1.3-.25-1.64v-.11h2.73c.21.88.32,1.79.32,2.63-.03,2.52-1.05,4.27-3.82,4.27h-12.6v2.94h-2.52Z"/>
      <path d="M85.85,168.07v-.11c-2.17-1.15-3.64-3.08-3.64-5.57,0-.53.07-.84.21-1.19h3.08v.1c-.14.46-.17.77-.17,1.33,0,2.9,2.17,5.39,5.71,5.39h10.22v3.26h-18.8v-3.22h3.4Z"/>
      <path d="M91.87,159.91c-5.46,0-9.87-3.54-9.87-9.21s4.41-9.14,9.87-9.14,9.91,3.47,9.91,9.14-4.41,9.21-9.91,9.21M91.87,144.9c-4.06,0-7.28,2-7.28,5.85s3.22,5.85,7.28,5.85c4.06,0,7.25-1.99,7.25-5.85s-3.18-5.85-7.25-5.85"/>
      <path d="M91.9,130.16c-6.19,0-9.91-3.57-9.91-8.23,0-2.66,1.33-4.76,3.33-5.95v-.07c-.84.07-2.2.1-3.46.1h-6.65v-3.25h26.04s0,3.22,0,3.22h-2.7v.07c2.03,1.19,3.26,3.18,3.26,5.81,0,5.08-3.85,8.3-9.91,8.3M91.94,115.85c-4.24,0-7.21,2-7.21,5.78,0,3.46,3.08,5.22,7.21,5.21,4.13,0,7.18-1.75,7.18-5.22,0-4.02-3.04-5.77-7.18-5.77"/>
      <path d="M91.87,109.48c-5.46,0-9.87-3.61-9.87-9,0-2.8,1.09-4.97,2.91-6.44,1.86-1.54,4.55-2.31,7.74-2.31v14.42c3.68-.24,6.48-2.24,6.48-5.88,0-2.59-1.22-4.38-3.22-4.97v-3.18c3.5.84,5.88,3.85,5.88,8.19,0,5.77-4.41,9.17-9.91,9.17M90.29,106.08v-10.89c-3.6.18-5.77,2.03-5.77,5.29s2.45,5.18,5.77,5.6"/>
      <path d="M96.28,80.08c-4.38,0-5.32-3.22-5.91-8.09-.32-2.76-.77-4.55-2.69-4.55-2.03,0-3.29,1.43-3.29,4.02,0,2.98,1.4,4.41,3.64,4.52v3.15c-3.18-.14-6.02-2.56-6.02-7.63,0-1.79.32-3.36,1.01-4.55.95-1.58,2.59-2.52,5.11-2.52h8.79c1.51,0,2.31-.35,1.96-1.99v-.14h2.28c.14.45.28.98.28,1.75,0,1.99-.94,2.97-2.94,3.32v.04c1.65,1.19,3.15,3.11,3.15,6.3,0,3.57-1.75,6.37-5.35,6.37M94.32,67.41h-3.08c.59.95,1.05,2.59,1.33,4.13.52,3.08,1.08,5.11,3.67,5.11,2.42,0,3.01-1.86,3.01-3.74,0-3.75-2.77-5.5-4.94-5.5"/>
      <path d="M85.85,56.6v-.11c-2.17-1.15-3.64-3.08-3.64-5.57,0-.53.07-.84.21-1.19h3.08v.1c-.14.46-.17.77-.17,1.33,0,2.9,2.17,5.39,5.71,5.39h10.22v3.26h-18.8v-3.22h3.4Z"/>
      <path d="M82.45,47.88v-2.94h-5.92v-3.22h5.92v-3.88h2.52v3.88h11.87c1.37,0,1.75-.73,1.75-1.92,0-.56-.14-1.3-.25-1.64v-.11h2.73c.21.88.32,1.79.32,2.63-.03,2.52-1.05,4.27-3.82,4.27h-12.6v2.94h-2.52Z"/>
      <path d="M91.87,35.81c-5.46,0-9.87-3.61-9.87-9,0-2.8,1.08-4.97,2.9-6.44,1.86-1.54,4.55-2.31,7.74-2.31v14.42c3.68-.24,6.48-2.24,6.48-5.88,0-2.59-1.23-4.38-3.22-4.97v-3.18c3.5.84,5.88,3.85,5.88,8.19,0,5.78-4.41,9.17-9.91,9.17M90.29,32.41v-10.89c-3.6.18-5.77,2.03-5.77,5.29s2.45,5.18,5.77,5.6"/>
      <path d="M95.54,15.96v-3.29c2.73-.39,3.64-2.49,3.64-5.18,0-2.97-1.3-4.23-2.98-4.23-2.06,0-2.59,1.58-3.26,4.9-.77,3.68-1.54,7-5.67,7-3.22,0-5.25-2.52-5.25-6.9,0-4.73,2.21-7.07,5.46-7.49v3.26c-1.92.28-3.01,1.61-3.01,4.31,0,2.55,1.19,3.64,2.62,3.64,1.96,0,2.35-1.82,2.98-5.01.73-3.75,1.57-6.97,5.95-6.97,3.82,0,5.78,3.15,5.78,7.56,0,5.18-2.45,8.12-6.27,8.4"/>
      <path d="M131.87,243.32c-5.46,0-9.87-3.61-9.87-9,0-2.8,1.08-4.97,2.9-6.44,1.86-1.54,4.55-2.31,7.74-2.31v14.42c3.68-.24,6.48-2.24,6.48-5.88,0-2.59-1.23-4.38-3.22-4.97v-3.19c3.5.84,5.88,3.85,5.88,8.19,0,5.77-4.41,9.17-9.91,9.17M130.29,239.92v-10.89c-3.6.18-5.77,2.03-5.77,5.29s2.45,5.18,5.77,5.6"/>
      <path d="M131.87,214.16c-5.46,0-9.87-3.6-9.87-9,0-2.8,1.08-4.97,2.9-6.44,1.86-1.54,4.55-2.31,7.74-2.31v14.42c3.68-.24,6.48-2.24,6.48-5.88,0-2.59-1.23-4.38-3.22-4.97v-3.18c3.5.84,5.88,3.85,5.88,8.19,0,5.78-4.41,9.17-9.91,9.17M130.29,210.77v-10.89c-3.6.17-5.77,2.03-5.77,5.28s2.45,5.18,5.77,5.6"/>
      <path d="M135.54,194.32v-3.29c2.73-.39,3.64-2.49,3.64-5.18,0-2.98-1.3-4.23-2.98-4.23-2.06,0-2.59,1.57-3.26,4.9-.77,3.68-1.54,7-5.67,7-3.22,0-5.25-2.52-5.25-6.9,0-4.73,2.2-7.07,5.46-7.49v3.26c-1.92.28-3.01,1.61-3.01,4.3,0,2.56,1.19,3.64,2.62,3.64,1.96,0,2.35-1.82,2.98-5.01.73-3.74,1.57-6.96,5.95-6.96,3.82,0,5.78,3.15,5.78,7.56,0,5.18-2.45,8.12-6.27,8.4"/>
      <path d="M122.45,175.04v-3.22h2.94v-.11c-2.13-1.4-3.4-3.29-3.4-5.99,0-4.8,3.71-8.09,9.9-8.09s9.91,3.11,9.91,8.19c0,2.56-1.05,4.62-3.04,5.92v.11c.67-.03,1.71-.07,3.15-.07h5.71v3.26h-25.17ZM131.97,160.96c-4.13,0-7.21,1.71-7.21,5.18,0,3.99,3.22,5.81,7.21,5.81s7.14-1.61,7.14-5.78c0-3.46-3.05-5.21-7.14-5.21"/>
      <path d="M131.87,155.37c-5.46,0-9.87-3.61-9.87-9,0-2.8,1.09-4.97,2.91-6.44,1.86-1.54,4.55-2.31,7.74-2.31v14.42c3.68-.24,6.48-2.24,6.48-5.88,0-2.59-1.22-4.38-3.22-4.97v-3.18c3.5.84,5.88,3.85,5.88,8.19,0,5.78-4.41,9.17-9.91,9.17M130.29,151.97v-10.89c-3.6.17-5.77,2.03-5.77,5.28s2.45,5.18,5.77,5.6"/>
      <path d="M122.45,135.84v-2.94h-5.92v-3.22h5.92v-3.88h2.52v3.88h11.87c1.37,0,1.75-.73,1.75-1.92,0-.56-.14-1.3-.24-1.64v-.11h2.73c.21.88.31,1.79.31,2.62-.04,2.52-1.05,4.27-3.82,4.27h-12.6v2.94h-2.52Z"/>
      <path d="M114.3,114.59v-3.99l5.08,3.12v2.73l-5.08-1.86ZM136.28,123.34c-4.38,0-5.32-3.22-5.91-8.09-.32-2.76-.77-4.55-2.69-4.55-2.03,0-3.29,1.43-3.29,4.03,0,2.98,1.4,4.41,3.64,4.51v3.15c-3.18-.14-6.02-2.56-6.02-7.63,0-1.79.32-3.36,1.01-4.55.95-1.58,2.59-2.52,5.11-2.52h8.79c1.51,0,2.31-.35,1.96-2v-.14h2.27c.14.45.28.98.28,1.75,0,1.99-.94,2.98-2.94,3.33v.04c1.65,1.19,3.15,3.11,3.15,6.3,0,3.57-1.75,6.37-5.35,6.37M134.32,110.67h-3.08c.59.95,1.05,2.59,1.33,4.13.52,3.08,1.08,5.11,3.67,5.11,2.42,0,3.01-1.86,3.01-3.75,0-3.74-2.77-5.49-4.94-5.49"/>
      <path d="M131.87,104.09c-5.46,0-9.87-3.54-9.87-9.17,0-4.52,2.56-7.46,6.58-8.12v3.26c-2.45.45-3.96,2.14-3.96,4.87,0,3.85,3.18,5.85,7.25,5.85s7.25-2,7.25-5.85c0-2.94-1.71-4.69-4.52-4.93v-3.22c4.48.42,7.18,3.39,7.18,8.16,0,5.63-4.41,9.17-9.91,9.17"/>
      <path d="M141.25,71.64h-2.62v.07c1.85,1.33,3.04,2.98,3.04,5.67,0,3.89-2.34,6.37-6.27,6.37h-12.95v-3.26h12.78c2.38,0,3.78-1.5,3.78-4.1,0-2.87-2.21-4.72-5.11-4.72h-11.45v-3.26h18.8v3.22Z"/>
      <rect x="115.2" y="60.73" width="26.04" height="3.26"/>
      <path d="M131.87,57.33c-5.46,0-9.87-3.54-9.87-9.21s4.41-9.14,9.87-9.14,9.91,3.47,9.91,9.14-4.41,9.21-9.91,9.21M131.87,42.32c-4.06,0-7.28,1.99-7.28,5.85s3.22,5.85,7.28,5.85,7.25-2,7.25-5.85-3.18-5.85-7.25-5.85"/>
      <path d="M135.54,36.89v-3.29c2.73-.39,3.64-2.49,3.64-5.18,0-2.98-1.3-4.24-2.98-4.24-2.06,0-2.59,1.58-3.26,4.9-.77,3.68-1.54,7-5.67,7-3.22,0-5.25-2.52-5.25-6.9,0-4.72,2.21-7.07,5.46-7.49v3.26c-1.92.28-3.01,1.61-3.01,4.31,0,2.55,1.19,3.64,2.62,3.64,1.96,0,2.35-1.82,2.98-5.01.73-3.74,1.57-6.97,5.95-6.97,3.82,0,5.78,3.15,5.78,7.56,0,5.18-2.45,8.12-6.27,8.4"/>
      <path d="M162.45,244.37v-3.47l10.15-3.29c2.52-.8,5.99-1.71,5.99-1.71v-.07s-3.47-.81-5.99-1.65l-10.15-3.36v-3.36l18.8,6.76v3.61l-18.8,6.55Z"/>
      <path d="M176.28,226.52c-4.38,0-5.32-3.22-5.92-8.09-.32-2.77-.77-4.55-2.7-4.55-2.03,0-3.29,1.44-3.29,4.03,0,2.97,1.4,4.41,3.64,4.51v3.15c-3.18-.14-6.02-2.56-6.02-7.63,0-1.79.31-3.36,1.01-4.55.95-1.58,2.59-2.52,5.11-2.52h8.79c1.51,0,2.31-.35,1.96-1.99v-.14h2.27c.14.45.28.98.28,1.75,0,1.99-.95,2.97-2.94,3.32v.04c1.65,1.19,3.15,3.11,3.15,6.3,0,3.57-1.75,6.37-5.36,6.37M174.32,213.85h-3.08c.6.95,1.05,2.59,1.33,4.13.52,3.08,1.09,5.11,3.68,5.11,2.42,0,3.01-1.86,3.01-3.74,0-3.75-2.77-5.5-4.94-5.5"/>
      <rect x="155.21" y="202.89" width="26.04" height="3.26"/>
      <path d="M171.87,199.5c-5.46,0-9.87-3.61-9.87-9,0-2.8,1.08-4.97,2.9-6.44,1.86-1.54,4.55-2.31,7.74-2.31v14.42c3.67-.24,6.48-2.24,6.48-5.88,0-2.59-1.23-4.38-3.22-4.97v-3.18c3.5.84,5.88,3.85,5.88,8.19,0,5.77-4.41,9.17-9.91,9.17M170.29,196.1v-10.89c-3.6.17-5.77,2.03-5.77,5.28s2.45,5.18,5.77,5.6"/>
      <path d="M171.9,170.34c-6.2,0-9.91-3.57-9.91-8.23,0-2.66,1.33-4.76,3.32-5.95v-.07c-.84.07-2.21.1-3.46.1h-6.65v-3.26h26.04v3.22h-2.7v.07c2.03,1.19,3.26,3.18,3.26,5.81,0,5.08-3.85,8.3-9.9,8.3M171.94,156.03c-4.24,0-7.21,1.99-7.21,5.77,0,3.47,3.08,5.22,7.21,5.22s7.18-1.75,7.18-5.22c0-4.02-3.05-5.77-7.18-5.77"/>
      <path d="M171.87,149.66c-5.46,0-9.87-3.61-9.87-9,0-2.8,1.09-4.97,2.91-6.44,1.86-1.54,4.55-2.31,7.74-2.31v14.42c3.68-.24,6.48-2.24,6.48-5.88,0-2.59-1.22-4.38-3.22-4.97v-3.18c3.5.84,5.88,3.85,5.88,8.19,0,5.77-4.41,9.17-9.91,9.17M170.29,146.27v-10.89c-3.6.17-5.77,2.03-5.77,5.28s2.45,5.18,5.77,5.6"/>
      <path d="M171.87,120.51c-5.46,0-9.87-3.54-9.87-9.17,0-4.52,2.56-7.46,6.58-8.12v3.26c-2.45.45-3.96,2.14-3.96,4.87,0,3.85,3.18,5.85,7.25,5.85s7.25-2,7.25-5.85c0-2.94-1.71-4.69-4.52-4.93v-3.22c4.48.42,7.18,3.39,7.18,8.16,0,5.63-4.41,9.17-9.91,9.17"/>
      <path d="M176.28,100.49c-4.38,0-5.32-3.22-5.91-8.09-.32-2.76-.77-4.55-2.7-4.55-2.03,0-3.29,1.43-3.29,4.03,0,2.98,1.4,4.41,3.64,4.51v3.15c-3.18-.14-6.02-2.56-6.02-7.63,0-1.79.32-3.36,1.01-4.55.95-1.58,2.59-2.52,5.11-2.52h8.79c1.51,0,2.31-.35,1.96-1.99v-.14h2.27c.14.45.28.98.28,1.75,0,1.99-.95,2.97-2.94,3.32v.04c1.65,1.19,3.15,3.11,3.15,6.3,0,3.57-1.75,6.37-5.35,6.37M174.32,87.81h-3.08c.59.95,1.05,2.59,1.33,4.13.52,3.08,1.08,5.11,3.67,5.11,2.42,0,3.01-1.86,3.01-3.74,0-3.75-2.77-5.5-4.94-5.5"/>
      <path d="M162.45,80.22v-3.22h2.8v-.11c-2.03-1.15-3.26-3.15-3.26-5.57,0-2.27,1.19-4.1,3.5-4.87v-.07c-2.34-1.33-3.5-3.54-3.5-5.81,0-3.43,2.21-5.81,6.12-5.81h13.13v3.26h-12.85c-2.31,0-3.67,1.5-3.67,3.39,0,2.38,2.07,4.45,4.94,4.45h11.59v3.22h-12.85c-2.31,0-3.68,1.3-3.68,3.22,0,2.24,2.07,4.66,4.94,4.66h11.59v3.26h-18.8Z"/>
      <path d="M178.59,47.25v.11h2.66v3.22h-26.04v-3.26h6.65c1.44,0,2.77.07,3.57.11v-.11c-1.99-1.23-3.43-3.33-3.43-6.06,0-4.76,3.71-8.02,9.91-8.02s9.9,3.05,9.9,8.12c0,2.52-1.12,4.66-3.22,5.88M171.94,36.58c-4.13,0-7.21,1.68-7.21,5.11,0,3.99,3.22,5.81,7.21,5.81s7.18-1.92,7.18-5.77c0-3.47-3.05-5.15-7.18-5.15"/>
      <path d="M165.85,26.74v-.1c-2.17-1.16-3.64-3.08-3.64-5.57,0-.52.07-.84.21-1.19h3.08v.11c-.14.45-.17.77-.17,1.33,0,2.91,2.17,5.39,5.71,5.39h10.22v3.25h-18.8v-3.22h3.4Z"/>
      <path d="M176.28,18.34c-4.38,0-5.32-3.22-5.92-8.09-.32-2.77-.77-4.55-2.7-4.55-2.03,0-3.29,1.43-3.29,4.03,0,2.98,1.4,4.41,3.64,4.52v3.15c-3.18-.14-6.02-2.56-6.02-7.63,0-1.79.31-3.36,1.01-4.55.95-1.58,2.59-2.52,5.11-2.52h8.79c1.51,0,2.31-.35,1.96-1.99v-.14h2.27c.14.45.28.98.28,1.75,0,1.99-.95,2.97-2.94,3.33v.03c1.65,1.19,3.15,3.11,3.15,6.3,0,3.57-1.75,6.37-5.36,6.37M174.32,5.67h-3.08c.6.95,1.05,2.59,1.33,4.13.52,3.08,1.09,5.11,3.68,5.11,2.42,0,3.01-1.86,3.01-3.75,0-3.75-2.77-5.5-4.94-5.5"/>
      <path d="M21.15,243.43C9.45,243.43,0,235.86,0,223.78c0-9.67,5.47-15.98,14.1-17.4v6.97c-5.25.98-8.48,4.58-8.48,10.43,0,8.25,6.83,12.52,15.53,12.52,8.7,0,15.52-4.27,15.52-12.52,0-6.3-3.67-10.05-9.67-10.58v-6.9c9.6.9,15.38,7.27,15.38,17.48,0,12.07-9.45,19.65-21.22,19.65"/>
      <path d="M30.6,201.54c-9.38,0-11.4-6.9-12.67-17.32-.68-5.93-1.65-9.75-5.78-9.75-4.35,0-7.05,3.07-7.05,8.62,0,6.37,3,9.45,7.8,9.67v6.75C6.08,199.22,0,194.04,0,183.17c0-3.82.67-7.2,2.17-9.75,2.03-3.38,5.55-5.4,10.95-5.4h18.82c3.22,0,4.95-.75,4.2-4.27v-.3h4.88c.3.98.6,2.1.6,3.75,0,4.28-2.03,6.38-6.3,7.12v.08c3.52,2.55,6.75,6.67,6.75,13.5,0,7.65-3.75,13.65-11.48,13.65M26.4,174.4h-6.6c1.28,2.02,2.25,5.55,2.85,8.85,1.12,6.6,2.32,10.95,7.88,10.95,5.17,0,6.45-3.98,6.45-8.03,0-8.02-5.92-11.77-10.57-11.77"/>
      <path d="M21.15,161.02c-11.7,0-21.15-7.72-21.15-19.27,0-6,2.32-10.65,6.22-13.8,3.98-3.3,9.75-4.95,16.57-4.95v30.9c7.88-.52,13.88-4.8,13.88-12.6,0-5.55-2.62-9.38-6.9-10.65v-6.82c7.5,1.8,12.6,8.25,12.6,17.55,0,12.38-9.45,19.65-21.22,19.65M17.78,153.75v-23.32c-7.72.38-12.37,4.35-12.37,11.32s5.25,11.1,12.37,12"/>
    </g>
  </g>
</svg>